<svg id="Layer_1" data-name="Layer 1" xmlns="http://www.w3.org/2000/svg" viewBox="0 0 427.17 49.54"><defs><style>.cls-1{fill:#0c5da5;}.cls-2{fill:#ff3d00;}</style></defs><title>logo offsession-fundo claro</title><path class="cls-1" d="M499.17,381.78c0,11.38-10.8,16.27-19.37,16.27s-19.22-4.89-19.22-16.27v-17c0-11.38,10.65-16.28,19.22-16.28s19.37,4.9,19.37,16.28Zm-11.3-16c0-4.6-3.31-7.27-8.07-7.27s-8,2.67-8,7.27v15c0,4.61,3.31,7.27,8,7.27s8.07-2.66,8.07-7.27Z" transform="translate(-460.58 -348.51)"/><path class="cls-2" d="M543.52,351.68v5.91c0,1.29-.43,2.08-2.08,2.08H519.69v8.43h18.72c1.66,0,2.09.79,2.09,2.09v5.69c0,1.29-.43,2.08-2.09,2.08H519.69v16.85c0,1.88-.43,2.16-2.09,2.16h-7.13c-1.65,0-2.08-.79-2.08-2.09v-43.2c0-1.29.43-2.09,2.08-2.09h31C543.09,349.59,543.52,350.39,543.52,351.68Z" transform="translate(-460.58 -348.51)"/><path class="cls-2" d="M586.87,351.68v5.91c0,1.29-.43,2.08-2.09,2.08H563v8.43h18.72c1.66,0,2.09.79,2.09,2.09v5.69c0,1.29-.43,2.08-2.09,2.08H563v16.85c0,1.88-.43,2.16-2.08,2.16h-7.13c-1.66,0-2.09-.79-2.09-2.09v-43.2c0-1.29.43-2.09,2.09-2.09h31C586.44,349.59,586.87,350.39,586.87,351.68Z" transform="translate(-460.58 -348.51)"/><path class="cls-1" d="M630.21,382.93c0,10.23-8.06,15.12-19.15,15.12-9,0-19.37-5.18-19.37-15.26,0-1.66.43-2,2.09-2h7c1.66,0,2.45.22,2.59,2a4.93,4.93,0,0,0,1.37,2.95c1.44,1.73,4.39,2.38,7.06,2.38,3.89,0,7.05-.87,7.05-4.9s-6.4-4.1-12.53-6.05c-7.27-2.3-14-5.18-14-14.33,0-9.36,8.49-14,17.49-14.33,9.15,0,19.16,4.18,19.16,13.68,0,1.73-.44,2-2.09,2h-7.06c-1.37,0-1.58-1-1.94-1.94a6,6,0,0,0-1.51-2.16c-1.37-1.3-4-1.95-6.12-1.95-2.38,0-6.34.94-6.34,4.18,0,4.39,10.58,6,13.46,7.13C622.58,371.05,630.21,373.14,630.21,382.93Z" transform="translate(-460.58 -348.51)"/><path class="cls-1" d="M675.07,389v5.9c0,1.3-.44,2.09-2.09,2.09H640.72c-1.66,0-2.09-.79-2.09-2.09v-43.2c0-1.29.43-2.09,2.09-2.09h31c1.66,0,2.09.8,2.09,2.09v6c0,1.29-.43,2.09-2.09,2.09H650v7.85h19.3c1.65,0,2.08.79,2.08,2.08v5.62c0,1.3-.43,2.09-2.08,2.09H650v9.5h23C674.63,386.89,675.07,387.69,675.07,389Z" transform="translate(-460.58 -348.51)"/><path class="cls-1" d="M718.91,382.93c0,10.23-8.06,15.12-19.15,15.12-9,0-19.37-5.18-19.37-15.26,0-1.66.43-2,2.09-2h7c1.66,0,2.45.22,2.6,2a5,5,0,0,0,1.36,2.95c1.44,1.73,4.4,2.38,7.06,2.38,3.89,0,7.06-.87,7.06-4.9s-6.41-4.1-12.53-6.05c-7.27-2.3-14-5.18-14-14.33,0-9.36,8.5-14,17.5-14.33,9.14,0,19.15,4.18,19.15,13.68,0,1.73-.43,2-2.09,2h-7.06c-1.36,0-1.58-1-1.94-1.94a6,6,0,0,0-1.51-2.16c-1.37-1.3-4-1.95-6.12-1.95-2.38,0-6.34.94-6.34,4.18,0,4.39,10.59,6,13.47,7.13C711.28,371.05,718.91,373.14,718.91,382.93Z" transform="translate(-460.58 -348.51)"/><path class="cls-1" d="M762.47,382.93c0,10.23-8.06,15.12-19.15,15.12-9,0-19.37-5.18-19.37-15.26,0-1.66.43-2,2.09-2h7c1.66,0,2.45.22,2.6,2a5,5,0,0,0,1.36,2.95c1.44,1.73,4.4,2.38,7.06,2.38,3.89,0,7.06-.87,7.06-4.9s-6.41-4.1-12.53-6.05c-7.28-2.3-14-5.18-14-14.33,0-9.36,8.5-14,17.5-14.33,9.14,0,19.15,4.18,19.15,13.68,0,1.73-.43,2-2.09,2h-7c-1.37,0-1.59-1-2-1.94a6,6,0,0,0-1.51-2.16c-1.37-1.3-4-1.95-6.12-1.95-2.38,0-6.34.94-6.34,4.18,0,4.39,10.59,6,13.47,7.13C754.84,371.05,762.47,373.14,762.47,382.93Z" transform="translate(-460.58 -348.51)"/><path class="cls-1" d="M793.58,389.2v5.68c0,1.3-.44,2.09-2.09,2.09H771.11c-1.66,0-2.09-.79-2.09-2.09V389.2c0-1.3.43-2.09,2.09-2.09h4.54V359.6h-4.4c-1.65,0-2.08-.79-2.08-2.09v-5.83c0-1.29.43-2.09,2.08-2.09h20c1.66,0,2.09.8,2.09,2.09v5.83c0,1.3-.43,2.09-2.09,2.09H787v27.51h4.54C793.14,387.11,793.58,387.9,793.58,389.2Z" transform="translate(-460.58 -348.51)"/><path class="cls-1" d="M840.09,381.78c0,11.38-10.8,16.27-19.37,16.27s-19.23-4.89-19.23-16.27v-17c0-11.38,10.66-16.28,19.23-16.28s19.37,4.9,19.37,16.28Zm-11.31-16c0-4.6-3.31-7.27-8.06-7.27s-8,2.67-8,7.27v15c0,4.61,3.31,7.27,8,7.27s8.06-2.66,8.06-7.27Z" transform="translate(-460.58 -348.51)"/><path class="cls-1" d="M887.75,351.68v43.2c0,1.3-.43,2.09-2.09,2.09h-6.55c-1.8,0-2.3-1-3.24-2.44l-15.26-24.7v25.05c0,1.66-.8,2.09-2.09,2.09h-7.13c-1.3,0-2.09-.43-2.09-2.09v-43.2c0-1.29.43-2.09,2.09-2.09h6.77c1.8,0,2.3,1,3.24,2.45l15.26,24.63v-25c0-1.65.8-2.09,2.09-2.09h6.91C887,349.59,887.75,350,887.75,351.68Z" transform="translate(-460.58 -348.51)"/></svg>